<svg xmlns="http://www.w3.org/2000/svg" width="100" height="100" viewBox="0 0 100 100">
<defs><path id="s0" d="M39.3 23.1 C39.9 23 41 23.5 41.9 23.7 C42.7 24 43.6 24.2 44.4 24.4 C45.2 24.7 46.1 24.9 46.9 25.2 C47.8 25.4 48.6 25.6 49.4 25.8 C50.3 26.1 51.1 26.4 51.9 26.6 C52.8 26.8 53.6 27.1 54.5 27.1 C55.3 27.2 56.1 26.9 57 26.8 C57.8 26.7 58.7 26.7 59.6 26.6 C60.4 26.5 61.3 26.4 62.1 26.3 C63 26.2 63.9 26.1 64.7 26 C65.5 25.9 66.4 25.7 67.2 25.7 C68 25.7 69 25.4 69.5 25.9 C70.1 26.3 70.1 27.5 70.4 28.3 C70.7 29.1 71.1 29.9 71.5 30.7 C71.9 31.5 72.2 32.4 72.5 33.2 C72.9 34 73.2 34.8 73.6 35.6 C74 36.4 74.3 37.2 74.7 38 C75.1 38.8 75.4 39.6 75.8 40.4 C76.1 41.2 76.5 42 76.8 42.8 C77.1 43.6 77.4 44.4 77.7 45.2 C78.1 46 78.5 46.8 78.8 47.6 C79.1 48.4 79.4 49.2 79.7 50 C80 50.8 80.4 51.6 80.7 52.3 C81.1 53.1 81.4 53.9 81.8 54.7 C82.1 55.5 82.4 56.3 82.8 57.1 C83.1 57.9 83.4 58.7 83.8 59.5 C84.1 60.3 84.4 61.1 84.7 61.9 C85.1 62.7 85.7 63.5 86 64.3 C86.2 65 86.6 66 86.3 66.4 C86 66.8 84.7 66.5 83.9 66.6 C83.1 66.7 82.2 67 81.4 67.2 C80.5 67.4 79.7 67.6 78.9 67.7 C78 67.9 77.2 68 76.3 68.2 C75.5 68.4 74.6 68.7 73.9 69 C73.1 69.4 72.4 70 71.7 70.4 C70.9 70.8 70.2 71.2 69.4 71.7 C68.7 72.1 67.9 72.5 67.2 72.9 C66.5 73.3 65.8 74 65 74.3 C64.3 74.7 63.5 74.8 62.7 74.9 C61.8 75 60.9 74.8 60 74.7 C59.2 74.6 58.3 74.5 57.5 74.4 C56.6 74.4 55.7 74.4 54.9 74.3 C54 74.3 53.1 74.2 52.3 74.1 C51.4 74.1 50.5 74 49.7 74 C48.8 73.9 48 73.8 47.1 73.7 C46.2 73.6 45.4 73.6 44.5 73.5 C43.6 73.5 42.8 73.5 41.9 73.4 C41 73.3 40.2 73.2 39.3 73.2 C38.5 73.1 37.6 73.2 36.7 73.2 C35.8 73.2 35 73.3 34.1 73.3 C33.2 73.3 32.3 73.3 31.4 73.3 C30.6 73.3 29.7 73.3 28.8 73.4 C27.9 73.4 27.1 73.4 26.2 73.4 C25.3 73.4 24.4 73.5 23.5 73.5 C22.7 73.5 21.8 73.4 20.9 73.4 C20 73.4 19.1 73.5 18.3 73.5 C17.4 73.6 16.5 73.6 15.6 73.6 C14.8 73.6 13.7 73.9 13 73.7 C12.4 73.6 11.7 73.1 11.7 72.5 C11.7 72 12.6 71.1 13.1 70.4 C13.6 69.6 14 68.9 14.5 68.1 C14.9 67.3 15.3 66.5 15.7 65.7 C16.2 65 16.6 64.2 17 63.4 C17.4 62.6 17.8 61.8 18.3 61 C18.7 60.3 19.2 59.5 19.6 58.7 C20 58 20.4 57.2 20.9 56.4 C21.3 55.6 21.8 54.9 22.3 54.1 C22.7 53.3 23.2 52.6 23.6 51.8 C24 51.1 24.4 50.3 24.8 49.6 C25.2 48.9 25.6 48.2 26.1 47.5 C26.5 46.7 26.9 45.9 27.3 45.2 C27.8 44.4 28.2 43.6 28.6 42.9 C29 42.1 29.4 41.4 29.8 40.6 C30.3 39.9 30.7 39.1 31.2 38.4 C31.6 37.6 32 36.9 32.5 36.1 C32.9 35.3 33.3 34.6 33.7 33.8 C34.1 33 34.5 32.3 34.9 31.5 C35.3 30.7 35.7 30 36.1 29.2 C36.5 28.4 36.9 27.6 37.3 26.9 C37.7 26.1 38.1 25.2 38.4 24.6 C38.7 23.9 38.8 23.2 39.3 23.1 Z"/></defs>
<g fill="#000" stroke="#000" stroke-linejoin="round" stroke-linecap="round" stroke-width="12"><use href="#s0"/></g>
<g fill="#fff" stroke="#fff" stroke-linejoin="round" stroke-linecap="round" stroke-width="8"><use href="#s0"/></g>
<g fill="#000" stroke="#000" stroke-linejoin="round" stroke-linecap="round" stroke-width="0"><use href="#s0"/></g>
<g><path d="M39.4 29.4 C39.6 29.7 40.1 31 40.4 31.7 C40.8 32.5 41.1 33.2 41.5 34 C41.8 34.8 42.1 35.6 42.5 36.4 C42.8 37.2 43.2 38 43.6 38.8 C43.9 39.6 44.2 40.4 44.6 41.2 C44.9 42 45.3 42.8 45.7 43.6 C46 44.4 46.3 45.2 46.7 46 C47 46.8 47.4 47.6 47.7 48.4 C48.1 49.2 48.5 49.9 48.9 50.7 C49.3 51.5 49.7 52.3 50.1 53.1 C50.5 53.9 50.8 54.7 51.2 55.5 C51.6 56.2 52.1 57 52.5 57.8 C52.9 58.6 53.2 59.4 53.6 60.2 C54 61 54.4 61.7 54.8 62.5 C55.2 63.3 55.5 64.1 55.9 64.9 C56.2 65.7 56.6 66.5 57 67.3 C57.4 68.1 58 69 58.2 69.7 C58.4 70.4 58.7 71.3 58.3 71.5 C57.9 71.8 56.6 71.3 55.7 71.2 C54.9 71.1 54 71.1 53.2 71.1 C52.3 71.1 51.5 71 50.6 71 C49.8 70.9 48.9 70.9 48.1 70.9 C47.2 70.8 46.4 70.8 45.5 70.8 C44.7 70.8 43.8 70.8 43 70.7 C42.1 70.7 41.3 70.7 40.4 70.6 C39.6 70.6 38.7 70.4 37.9 70.4 C37 70.4 36.2 70.5 35.3 70.5 C34.5 70.6 33.6 70.6 32.8 70.6 C31.9 70.7 31.1 70.6 30.2 70.7 C29.4 70.7 28.5 70.7 27.7 70.7 C26.8 70.7 26 70.8 25.1 70.8 C24.2 70.8 23.4 70.8 22.5 70.8 C21.7 70.9 20.7 71 19.9 71 C19 71 17.7 71.3 17.5 70.9 C17.3 70.5 18.3 69.5 18.7 68.8 C19.1 68.1 19.4 67.3 19.8 66.6 C20.2 65.8 20.6 65 21 64.2 C21.4 63.5 21.7 62.7 22.1 61.9 C22.4 61.1 22.8 60.3 23.2 59.5 C23.6 58.7 24 58 24.3 57.2 C24.7 56.4 25.1 55.6 25.4 54.8 C25.8 54 26.2 53.2 26.5 52.4 C26.9 51.6 27.2 50.8 27.6 50.1 C28 49.3 28.3 48.6 28.7 47.8 C29.1 47.1 29.6 46.3 30 45.6 C30.5 44.8 30.9 44.1 31.3 43.3 C31.7 42.6 32.2 41.8 32.6 41.1 C33 40.4 33.4 39.6 33.9 38.9 C34.3 38.1 34.8 37.4 35.2 36.7 C35.6 35.9 36 35.1 36.4 34.4 C36.8 33.7 37.3 33 37.7 32.2 C38.2 31.4 38.6 30.3 38.8 29.8 C39.1 29.3 39.1 29.1 39.4 29.4 Z" fill="#fff"/><path d="M52.7 42.4 C53.1 42.3 54.3 42.1 55.1 42 C56 41.9 56.8 41.9 57.6 41.8 C58.5 41.7 59.4 41.6 60.2 41.5 C61.1 41.5 61.9 41.4 62.8 41.3 C63.7 41.2 64.5 41.2 65.4 41 C66.2 40.9 67.1 40.6 67.9 40.6 C68.7 40.6 69.7 40.6 70.1 41.1 C70.5 41.6 70.1 42.8 70.1 43.6 C70.2 44.5 70.3 45.3 70.3 46.2 C70.4 47 70.4 47.9 70.5 48.7 C70.6 49.5 71.1 50.6 70.9 51.2 C70.6 51.9 69.8 52.2 69.1 52.4 C68.4 52.6 67.4 52.5 66.6 52.5 C65.8 52.6 64.9 52.7 64.1 52.9 C63.2 53 62.4 53.1 61.5 53.2 C60.7 53.3 59.9 53.4 59 53.5 C58.2 53.7 57.3 54 56.5 54 C55.7 53.9 54.8 53.7 54.4 53.1 C54.1 52.5 54.3 51.3 54.2 50.5 C54.1 49.6 53.9 48.8 53.7 47.9 C53.6 47.1 53.4 46.2 53.2 45.4 C53 44.5 52.7 43.4 52.6 42.9 C52.5 42.4 52.3 42.6 52.7 42.4 Z" fill="#fff"/><path d="M73.1 54.2 C73.1 54.5 73.4 55.2 73.6 55.7 C73.8 56.2 73.9 56.7 74.1 57.3 C74.4 57.8 74.7 58.4 75 58.9 C75.3 59.5 75.6 60 75.9 60.5 C76.2 61 76.4 61.4 76.6 61.9 C76.8 62.4 76.9 62.9 76.9 63.3 C76.8 63.7 76.6 63.9 76.3 64.3 C76.1 64.7 75.7 65.1 75.3 65.5 C74.9 65.8 74.3 66 73.9 66.3 C73.5 66.6 73.2 66.9 73 67.1 C72.9 67.3 72.9 67.3 73.1 67.3 C73.3 67.2 73.8 67.1 74.2 66.9 C74.7 66.7 75.3 66.6 75.9 66.3 C76.4 66 77 65.6 77.4 65.1 C77.8 64.7 78.2 64 78.3 63.4 C78.4 62.8 78.1 62.1 77.8 61.5 C77.6 60.9 77.3 60.4 77 59.9 C76.7 59.3 76.4 58.8 76.1 58.3 C75.8 57.7 75.4 57.2 75.1 56.8 C74.8 56.3 74.5 55.8 74.2 55.4 C73.9 55 73.4 54.4 73.2 54.2 C73.1 54 73 54 73.1 54.2 Z" fill="#fff"/></g>
<g><path d="M36.9 40.2 C36.7 40.3 36.5 41.8 36.3 42.6 C36.1 43.5 36 44.3 35.8 45.1 C35.6 46 35.5 46.8 35.3 47.7 C35.2 48.5 35 49.4 34.8 50.2 C34.7 51 34.5 51.9 34.3 52.7 C34.1 53.6 34 54.4 33.7 55.2 C33.5 56.1 33.1 56.9 32.8 57.7 C32.5 58.5 32.1 59.3 31.8 60.2 C31.4 61 31.1 61.8 30.8 62.6 C30.5 63.5 30.1 64.3 29.8 65.1 C29.4 65.9 29.1 66.7 28.7 67.5 C28.3 68.3 27.7 69.2 27.6 69.9 C27.5 70.6 27.6 71.5 28.1 71.7 C28.6 72 29.8 71.5 30.7 71.5 C31.5 71.4 32.4 71.5 33.2 71.5 C34 71.4 34.9 71.4 35.7 71.4 C36.6 71.4 37.4 71.4 38.3 71.4 C39.1 71.4 39.9 71.4 40.8 71.4 C41.6 71.4 42.5 71.4 43.3 71.4 C44.2 71.4 45.6 71.9 45.9 71.6 C46.3 71.2 45.7 70.1 45.4 69.3 C45.2 68.5 44.7 67.8 44.4 66.9 C44.1 66.1 43.8 65.3 43.6 64.4 C43.3 63.6 43 62.8 42.7 62 C42.4 61.1 42.1 60.3 41.8 59.5 C41.5 58.7 41.2 57.8 40.9 57 C40.7 56.2 40.5 55.4 40.3 54.5 C40.1 53.7 40 52.9 39.8 52 C39.6 51.2 39.3 50.4 39.1 49.6 C38.9 48.7 38.7 47.9 38.6 47.1 C38.4 46.2 38.2 45.4 38 44.6 C37.8 43.7 37.7 42.7 37.5 41.9 C37.3 41.2 37.1 40 36.9 40.2 Z" fill="#000"/><path d="M38.1 40.3 C38.2 40.5 38.3 41.2 38.5 41.8 C38.6 42.4 38.8 43.3 38.9 43.9 C39 44.5 39.1 45 39.2 45.6 C39.4 46.1 39.5 46.7 39.7 47.3 C39.8 47.9 40 48.6 40.1 49.2 C40.3 49.8 40.6 50.4 40.8 51 C40.9 51.6 41.1 52.2 41.3 52.8 C41.5 53.4 41.8 54 42 54.6 C42.2 55.1 42.3 55.7 42.5 56.2 C42.7 56.7 42.9 57.2 43.1 57.8 C43.3 58.4 43.4 59 43.6 59.6 C43.8 60.2 44.1 60.8 44.3 61.4 C44.6 62 44.9 62.5 45.1 63.1 C45.4 63.7 45.6 64.3 45.9 64.9 C46.1 65.4 46.3 66 46.5 66.5 C46.7 67.1 47 67.5 47.2 68.1 C47.5 68.6 47.8 69.5 48.1 70 C48.4 70.6 48.8 71.2 48.9 71.4 C49.1 71.6 49.1 71.6 49.1 71.4 C49 71.1 48.8 70.4 48.6 69.8 C48.4 69.3 48 68.4 47.8 67.8 C47.6 67.2 47.6 66.8 47.4 66.2 C47.3 65.6 47 65.1 46.8 64.5 C46.6 63.9 46.3 63.3 46.1 62.7 C45.9 62.1 45.6 61.5 45.4 60.9 C45.2 60.3 45 59.7 44.8 59.2 C44.6 58.6 44.4 58 44.3 57.4 C44.1 56.8 43.9 56.3 43.7 55.8 C43.5 55.2 43.3 54.7 43.1 54.2 C42.9 53.6 42.7 53 42.5 52.4 C42.3 51.8 42.1 51.2 41.9 50.6 C41.7 50 41.5 49.4 41.3 48.8 C41.1 48.2 40.9 47.6 40.7 47 C40.5 46.5 40.3 45.9 40.2 45.3 C40 44.8 39.9 44.3 39.7 43.7 C39.4 43.1 39.1 42.3 38.9 41.7 C38.7 41.1 38.4 40.4 38.3 40.2 C38.2 40 38.1 40 38.1 40.3 Z" fill="#000"/><path d="M53.8 47.2 C54.3 47.1 55.5 47 56.3 46.9 C57.2 46.9 58.1 46.9 58.9 46.8 C59.8 46.8 60.6 46.7 61.5 46.6 C62.3 46.5 63.1 46.4 64 46.4 C64.8 46.3 65.7 46.3 66.5 46.2 C67.4 46 68.5 45.3 69.1 45.5 C69.7 45.8 70.1 46.9 70.3 47.8 C70.5 48.6 70.6 49.9 70.3 50.5 C70 51.2 69.1 51.4 68.3 51.6 C67.6 51.7 66.6 51.5 65.7 51.6 C64.9 51.6 64 51.8 63.2 51.9 C62.3 52 61.5 52 60.6 52.1 C59.7 52.2 58.8 52.4 58 52.5 C57.1 52.6 56.1 53 55.5 52.6 C54.9 52.3 54.6 51.1 54.3 50.4 C54 49.6 53.8 48.4 53.8 47.8 C53.7 47.3 53.4 47.4 53.8 47.2 Z" fill="#000"/><path d="M53 44.9 C53.3 45.1 54.2 45.3 54.8 45.3 C55.4 45.4 55.9 45.3 56.5 45.3 C57.1 45.2 57.8 45.2 58.5 45.2 C59.1 45.2 59.9 45.2 60.6 45.2 C61.3 45.2 62 45.1 62.7 45.1 C63.4 45 64.1 44.8 64.8 44.7 C65.5 44.6 66.1 44.4 66.7 44.3 C67.3 44.2 67.8 44.1 68.4 43.9 C68.9 43.8 69.8 43.5 70.1 43.3 C70.4 43.2 70.4 43.2 70.1 43.1 C69.8 43 68.9 42.9 68.3 42.8 C67.7 42.8 67.2 42.8 66.6 42.8 C66 42.7 65.3 42.8 64.6 42.8 C63.9 42.8 63.2 42.7 62.5 42.8 C61.8 42.8 61.1 42.9 60.4 43 C59.7 43.1 59 43.3 58.3 43.4 C57.6 43.5 57 43.6 56.4 43.7 C55.8 43.8 55.3 43.8 54.7 44 C54.1 44.2 53.2 44.5 52.9 44.7 C52.7 44.8 52.7 44.8 53 44.9 Z" fill="#000"/></g>
</svg>
